<svg xmlns="http://www.w3.org/2000/svg" viewBox="0 0 980 600" width="980" height="600">
  <style>
    .label { font-family: 'Helvetica Neue', Arial, sans-serif; font-size: 13px; font-weight: 600; letter-spacing: 0.5px; fill: #333; }
  </style>
  
  <!-- ==================== LEFT SIDE (ORIGINAL) ==================== -->
  
  <!-- DISENTANGLED MODEL (left) -->
  <text x="30" y="25" class="label">DISENTANGLED MODEL</text>
  
  <!-- Curved connections Layer 1 to Layer 2 (disentangled left) -->
  <g stroke="#999" stroke-width="0.5" fill="none">
    <path d="M 60 50 C 100 50, 120 50, 160 50"/><path d="M 60 50 C 100 50, 120 80, 160 80"/><path d="M 60 50 C 100 50, 120 110, 160 110"/><path d="M 60 50 C 100 50, 120 140, 160 140"/><path d="M 60 50 C 100 50, 120 170, 160 170"/><path d="M 60 50 C 100 50, 120 200, 160 200"/>
    <path d="M 60 80 C 100 80, 120 50, 160 50"/><path d="M 60 80 C 100 80, 120 80, 160 80"/><path d="M 60 80 C 100 80, 120 110, 160 110"/><path d="M 60 80 C 100 80, 120 140, 160 140"/><path d="M 60 80 C 100 80, 120 170, 160 170"/><path d="M 60 80 C 100 80, 120 200, 160 200"/>
    <path d="M 60 110 C 100 110, 120 50, 160 50"/><path d="M 60 110 C 100 110, 120 80, 160 80"/><path d="M 60 110 C 100 110, 120 110, 160 110"/><path d="M 60 110 C 100 110, 120 140, 160 140"/><path d="M 60 110 C 100 110, 120 170, 160 170"/><path d="M 60 110 C 100 110, 120 200, 160 200"/>
    <path d="M 60 140 C 100 140, 120 50, 160 50"/><path d="M 60 140 C 100 140, 120 80, 160 80"/><path d="M 60 140 C 100 140, 120 110, 160 110"/><path d="M 60 140 C 100 140, 120 140, 160 140"/><path d="M 60 140 C 100 140, 120 170, 160 170"/><path d="M 60 140 C 100 140, 120 200, 160 200"/>
    <path d="M 60 170 C 100 170, 120 50, 160 50"/><path d="M 60 170 C 100 170, 120 80, 160 80"/><path d="M 60 170 C 100 170, 120 110, 160 110"/><path d="M 60 170 C 100 170, 120 140, 160 140"/><path d="M 60 170 C 100 170, 120 170, 160 170"/><path d="M 60 170 C 100 170, 120 200, 160 200"/>
    <path d="M 60 200 C 100 200, 120 50, 160 50"/><path d="M 60 200 C 100 200, 120 80, 160 80"/><path d="M 60 200 C 100 200, 120 110, 160 110"/><path d="M 60 200 C 100 200, 120 140, 160 140"/><path d="M 60 200 C 100 200, 120 170, 160 170"/><path d="M 60 200 C 100 200, 120 200, 160 200"/>
  </g>
  
  <!-- Curved connections Layer 2 to Layer 3 (disentangled left) -->
  <g stroke="#999" stroke-width="0.5" fill="none">
    <path d="M 180 50 C 220 50, 240 50, 280 50"/><path d="M 180 50 C 220 50, 240 80, 280 80"/><path d="M 180 50 C 220 50, 240 110, 280 110"/><path d="M 180 50 C 220 50, 240 140, 280 140"/><path d="M 180 50 C 220 50, 240 170, 280 170"/><path d="M 180 50 C 220 50, 240 200, 280 200"/>
    <path d="M 180 80 C 220 80, 240 50, 280 50"/><path d="M 180 80 C 220 80, 240 80, 280 80"/><path d="M 180 80 C 220 80, 240 110, 280 110"/><path d="M 180 80 C 220 80, 240 140, 280 140"/><path d="M 180 80 C 220 80, 240 170, 280 170"/><path d="M 180 80 C 220 80, 240 200, 280 200"/>
    <path d="M 180 110 C 220 110, 240 50, 280 50"/><path d="M 180 110 C 220 110, 240 80, 280 80"/><path d="M 180 110 C 220 110, 240 110, 280 110"/><path d="M 180 110 C 220 110, 240 140, 280 140"/><path d="M 180 110 C 220 110, 240 170, 280 170"/><path d="M 180 110 C 220 110, 240 200, 280 200"/>
    <path d="M 180 140 C 220 140, 240 50, 280 50"/><path d="M 180 140 C 220 140, 240 80, 280 80"/><path d="M 180 140 C 220 140, 240 110, 280 110"/><path d="M 180 140 C 220 140, 240 140, 280 140"/><path d="M 180 140 C 220 140, 240 170, 280 170"/><path d="M 180 140 C 220 140, 240 200, 280 200"/>
    <path d="M 180 170 C 220 170, 240 50, 280 50"/><path d="M 180 170 C 220 170, 240 80, 280 80"/><path d="M 180 170 C 220 170, 240 110, 280 110"/><path d="M 180 170 C 220 170, 240 140, 280 140"/><path d="M 180 170 C 220 170, 240 170, 280 170"/><path d="M 180 170 C 220 170, 240 200, 280 200"/>
    <path d="M 180 200 C 220 200, 240 50, 280 50"/><path d="M 180 200 C 220 200, 240 80, 280 80"/><path d="M 180 200 C 220 200, 240 110, 280 110"/><path d="M 180 200 C 220 200, 240 140, 280 140"/><path d="M 180 200 C 220 200, 240 170, 280 170"/><path d="M 180 200 C 220 200, 240 200, 280 200"/>
  </g>
  
  <!-- Curved connections Layer 3 to Layer 4 (disentangled left) -->
  <g stroke="#999" stroke-width="0.5" fill="none">
    <path d="M 300 50 C 340 50, 360 50, 400 50"/><path d="M 300 50 C 340 50, 360 80, 400 80"/><path d="M 300 50 C 340 50, 360 110, 400 110"/><path d="M 300 50 C 340 50, 360 140, 400 140"/><path d="M 300 50 C 340 50, 360 170, 400 170"/><path d="M 300 50 C 340 50, 360 200, 400 200"/>
    <path d="M 300 80 C 340 80, 360 50, 400 50"/><path d="M 300 80 C 340 80, 360 80, 400 80"/><path d="M 300 80 C 340 80, 360 110, 400 110"/><path d="M 300 80 C 340 80, 360 140, 400 140"/><path d="M 300 80 C 340 80, 360 170, 400 170"/><path d="M 300 80 C 340 80, 360 200, 400 200"/>
    <path d="M 300 110 C 340 110, 360 50, 400 50"/><path d="M 300 110 C 340 110, 360 80, 400 80"/><path d="M 300 110 C 340 110, 360 110, 400 110"/><path d="M 300 110 C 340 110, 360 140, 400 140"/><path d="M 300 110 C 340 110, 360 170, 400 170"/><path d="M 300 110 C 340 110, 360 200, 400 200"/>
    <path d="M 300 140 C 340 140, 360 50, 400 50"/><path d="M 300 140 C 340 140, 360 80, 400 80"/><path d="M 300 140 C 340 140, 360 110, 400 110"/><path d="M 300 140 C 340 140, 360 140, 400 140"/><path d="M 300 140 C 340 140, 360 170, 400 170"/><path d="M 300 140 C 340 140, 360 200, 400 200"/>
    <path d="M 300 170 C 340 170, 360 50, 400 50"/><path d="M 300 170 C 340 170, 360 80, 400 80"/><path d="M 300 170 C 340 170, 360 110, 400 110"/><path d="M 300 170 C 340 170, 360 140, 400 140"/><path d="M 300 170 C 340 170, 360 170, 400 170"/><path d="M 300 170 C 340 170, 360 200, 400 200"/>
    <path d="M 300 200 C 340 200, 360 50, 400 50"/><path d="M 300 200 C 340 200, 360 80, 400 80"/><path d="M 300 200 C 340 200, 360 110, 400 110"/><path d="M 300 200 C 340 200, 360 140, 400 140"/><path d="M 300 200 C 340 200, 360 170, 400 170"/><path d="M 300 200 C 340 200, 360 200, 400 200"/>
  </g>
  
  <!-- Neurons Layer 1 (disentangled left) -->
  <circle cx="50" cy="50" r="10" fill="#444"/>
  <circle cx="50" cy="80" r="10" fill="#444"/>
  <circle cx="50" cy="110" r="10" fill="#444"/>
  <circle cx="50" cy="140" r="10" fill="#444"/>
  <circle cx="50" cy="170" r="10" fill="#444"/>
  <circle cx="50" cy="200" r="10" fill="#444"/>
  
  <!-- Neurons Layer 2 (disentangled left) -->
  <circle cx="170" cy="50" r="10" fill="#444"/>
  <circle cx="170" cy="80" r="10" fill="#444"/>
  <circle cx="170" cy="110" r="10" fill="#444"/>
  <circle cx="170" cy="140" r="10" fill="#444"/>
  <circle cx="170" cy="170" r="10" fill="#444"/>
  <circle cx="170" cy="200" r="10" fill="#444"/>
  
  <!-- Neurons Layer 3 (disentangled left) -->
  <circle cx="290" cy="50" r="10" fill="#444"/>
  <circle cx="290" cy="80" r="10" fill="#444"/>
  <circle cx="290" cy="110" r="10" fill="#444"/>
  <circle cx="290" cy="140" r="10" fill="#444"/>
  <circle cx="290" cy="170" r="10" fill="#444"/>
  <circle cx="290" cy="200" r="10" fill="#444"/>
  
  <!-- Neurons Layer 4 (disentangled left) -->
  <circle cx="410" cy="50" r="10" fill="#444"/>
  <circle cx="410" cy="80" r="10" fill="#444"/>
  <circle cx="410" cy="110" r="10" fill="#444"/>
  <circle cx="410" cy="140" r="10" fill="#444"/>
  <circle cx="410" cy="170" r="10" fill="#444"/>
  <circle cx="410" cy="200" r="10" fill="#444"/>
  
  <!-- Orange dashed arrow (left) -->
  <defs>
    <marker id="arrowhead" markerWidth="8" markerHeight="6" refX="7" refY="3" orient="auto">
      <polygon points="0 0, 8 3, 0 6" fill="#E8890C"/>
    </marker>
  </defs>
  
  <line x1="230" y1="230" x2="230" y2="270" stroke="#E8890C" stroke-width="2" stroke-dasharray="6,4" marker-end="url(#arrowhead)"/>
  
  <!-- Curved connections Layer 1 to Layer 2 (observed left) -->
  <g stroke="#999" stroke-width="0.5" fill="none">
    <path d="M 60 310 C 100 310, 120 310, 160 310"/><path d="M 60 310 C 100 310, 120 340, 160 340"/><path d="M 60 310 C 100 310, 120 370, 160 370"/>
    <path d="M 60 340 C 100 340, 120 310, 160 310"/><path d="M 60 340 C 100 340, 120 340, 160 340"/><path d="M 60 340 C 100 340, 120 370, 160 370"/>
    <path d="M 60 370 C 100 370, 120 310, 160 310"/><path d="M 60 370 C 100 370, 120 340, 160 340"/><path d="M 60 370 C 100 370, 120 370, 160 370"/>
  </g>
  
  <!-- Curved connections Layer 2 to Layer 3 (observed left) -->
  <g stroke="#999" stroke-width="0.5" fill="none">
    <path d="M 180 310 C 220 310, 240 310, 280 310"/><path d="M 180 310 C 220 310, 240 340, 280 340"/><path d="M 180 310 C 220 310, 240 370, 280 370"/>
    <path d="M 180 340 C 220 340, 240 310, 280 310"/><path d="M 180 340 C 220 340, 240 340, 280 340"/><path d="M 180 340 C 220 340, 240 370, 280 370"/>
    <path d="M 180 370 C 220 370, 240 310, 280 310"/><path d="M 180 370 C 220 370, 240 340, 280 340"/><path d="M 180 370 C 220 370, 240 370, 280 370"/>
  </g>
  
  <!-- Curved connections Layer 3 to Layer 4 (observed left) -->
  <g stroke="#999" stroke-width="0.5" fill="none">
    <path d="M 300 310 C 340 310, 360 310, 400 310"/><path d="M 300 310 C 340 310, 360 340, 400 340"/><path d="M 300 310 C 340 310, 360 370, 400 370"/>
    <path d="M 300 340 C 340 340, 360 310, 400 310"/><path d="M 300 340 C 340 340, 360 340, 400 340"/><path d="M 300 340 C 340 340, 360 370, 400 370"/>
    <path d="M 300 370 C 340 370, 360 310, 400 310"/><path d="M 300 370 C 340 370, 360 340, 400 340"/><path d="M 300 370 C 340 370, 360 370, 400 370"/>
  </g>
  
  <!-- Neurons Layer 1 (observed left) -->
  <circle cx="50" cy="310" r="10" fill="#444"/>
  <circle cx="50" cy="340" r="10" fill="#444"/>
  <circle cx="50" cy="370" r="10" fill="#444"/>
  
  <!-- Neurons Layer 2 (observed left) -->
  <circle cx="170" cy="310" r="10" fill="#444"/>
  <circle cx="170" cy="340" r="10" fill="#444"/>
  <circle cx="170" cy="370" r="10" fill="#444"/>
  
  <!-- Neurons Layer 3 (observed left) -->
  <circle cx="290" cy="310" r="10" fill="#444"/>
  <circle cx="290" cy="340" r="10" fill="#444"/>
  <circle cx="290" cy="370" r="10" fill="#444"/>
  
  <!-- Neurons Layer 4 (observed left) -->
  <circle cx="410" cy="310" r="10" fill="#444"/>
  <circle cx="410" cy="340" r="10" fill="#444"/>
  <circle cx="410" cy="370" r="10" fill="#444"/>
  
  <!-- OBSERVED MODEL label (left) -->
  <text x="30" y="410" class="label">OBSERVED MODEL</text>
  
  <!-- ==================== RIGHT SIDE (EXPANDED) ==================== -->
  <!-- Right network offset: +520 -->
  <!-- Disentangled: 10 neurons (4 green on top, 6 gray below) -->
  <!-- Green y: 50, 80, 110, 140 -->
  <!-- Gray y: 170, 200, 230, 260, 290, 320 -->
  <!-- Observed: 5 neurons at y: 370, 400, 430, 460, 490 (but we need to shift everything) -->
  
  <!-- Actually let's recalculate to fit better -->
  <!-- Disentangled right: 10 neurons, y from 50 to 320 (30px spacing) -->
  <!-- Green: 50, 80, 110, 140 (top 4) -->
  <!-- Gray: 170, 200, 230, 260, 290, 320 (bottom 6) -->
  <!-- Arrow at y ~350 to 390 -->
  <!-- Observed right: 5 neurons, y from 420 to 540 (30px spacing) -->
  
  <!-- GREEN edges: any edge involving green neurons (y <= 140) -->
  
  <!-- Curved connections Layer 1 to Layer 2 (disentangled right) - GRAY only (gray to gray) -->
  <g stroke="#999" stroke-width="0.5" fill="none">
    <!-- From gray neurons (170-320) to gray neurons (170-320) -->
    <path d="M 580 170 C 620 170, 640 170, 680 170"/><path d="M 580 170 C 620 170, 640 200, 680 200"/><path d="M 580 170 C 620 170, 640 230, 680 230"/><path d="M 580 170 C 620 170, 640 260, 680 260"/><path d="M 580 170 C 620 170, 640 290, 680 290"/><path d="M 580 170 C 620 170, 640 320, 680 320"/>
    <path d="M 580 200 C 620 200, 640 170, 680 170"/><path d="M 580 200 C 620 200, 640 200, 680 200"/><path d="M 580 200 C 620 200, 640 230, 680 230"/><path d="M 580 200 C 620 200, 640 260, 680 260"/><path d="M 580 200 C 620 200, 640 290, 680 290"/><path d="M 580 200 C 620 200, 640 320, 680 320"/>
    <path d="M 580 230 C 620 230, 640 170, 680 170"/><path d="M 580 230 C 620 230, 640 200, 680 200"/><path d="M 580 230 C 620 230, 640 230, 680 230"/><path d="M 580 230 C 620 230, 640 260, 680 260"/><path d="M 580 230 C 620 230, 640 290, 680 290"/><path d="M 580 230 C 620 230, 640 320, 680 320"/>
    <path d="M 580 260 C 620 260, 640 170, 680 170"/><path d="M 580 260 C 620 260, 640 200, 680 200"/><path d="M 580 260 C 620 260, 640 230, 680 230"/><path d="M 580 260 C 620 260, 640 260, 680 260"/><path d="M 580 260 C 620 260, 640 290, 680 290"/><path d="M 580 260 C 620 260, 640 320, 680 320"/>
    <path d="M 580 290 C 620 290, 640 170, 680 170"/><path d="M 580 290 C 620 290, 640 200, 680 200"/><path d="M 580 290 C 620 290, 640 230, 680 230"/><path d="M 580 290 C 620 290, 640 260, 680 260"/><path d="M 580 290 C 620 290, 640 290, 680 290"/><path d="M 580 290 C 620 290, 640 320, 680 320"/>
    <path d="M 580 320 C 620 320, 640 170, 680 170"/><path d="M 580 320 C 620 320, 640 200, 680 200"/><path d="M 580 320 C 620 320, 640 230, 680 230"/><path d="M 580 320 C 620 320, 640 260, 680 260"/><path d="M 580 320 C 620 320, 640 290, 680 290"/><path d="M 580 320 C 620 320, 640 320, 680 320"/>
  </g>
  
  <!-- Curved connections Layer 1 to Layer 2 (disentangled right) - GREEN (involving green neurons) -->
  <g stroke="#2E8B57" stroke-width="0.5" fill="none">
    <!-- From green neurons (50-140) to ALL neurons -->
    <path d="M 580 50 C 620 50, 640 50, 680 50"/><path d="M 580 50 C 620 50, 640 80, 680 80"/><path d="M 580 50 C 620 50, 640 110, 680 110"/><path d="M 580 50 C 620 50, 640 140, 680 140"/><path d="M 580 50 C 620 50, 640 170, 680 170"/><path d="M 580 50 C 620 50, 640 200, 680 200"/><path d="M 580 50 C 620 50, 640 230, 680 230"/><path d="M 580 50 C 620 50, 640 260, 680 260"/><path d="M 580 50 C 620 50, 640 290, 680 290"/><path d="M 580 50 C 620 50, 640 320, 680 320"/>
    <path d="M 580 80 C 620 80, 640 50, 680 50"/><path d="M 580 80 C 620 80, 640 80, 680 80"/><path d="M 580 80 C 620 80, 640 110, 680 110"/><path d="M 580 80 C 620 80, 640 140, 680 140"/><path d="M 580 80 C 620 80, 640 170, 680 170"/><path d="M 580 80 C 620 80, 640 200, 680 200"/><path d="M 580 80 C 620 80, 640 230, 680 230"/><path d="M 580 80 C 620 80, 640 260, 680 260"/><path d="M 580 80 C 620 80, 640 290, 680 290"/><path d="M 580 80 C 620 80, 640 320, 680 320"/>
    <path d="M 580 110 C 620 110, 640 50, 680 50"/><path d="M 580 110 C 620 110, 640 80, 680 80"/><path d="M 580 110 C 620 110, 640 110, 680 110"/><path d="M 580 110 C 620 110, 640 140, 680 140"/><path d="M 580 110 C 620 110, 640 170, 680 170"/><path d="M 580 110 C 620 110, 640 200, 680 200"/><path d="M 580 110 C 620 110, 640 230, 680 230"/><path d="M 580 110 C 620 110, 640 260, 680 260"/><path d="M 580 110 C 620 110, 640 290, 680 290"/><path d="M 580 110 C 620 110, 640 320, 680 320"/>
    <path d="M 580 140 C 620 140, 640 50, 680 50"/><path d="M 580 140 C 620 140, 640 80, 680 80"/><path d="M 580 140 C 620 140, 640 110, 680 110"/><path d="M 580 140 C 620 140, 640 140, 680 140"/><path d="M 580 140 C 620 140, 640 170, 680 170"/><path d="M 580 140 C 620 140, 640 200, 680 200"/><path d="M 580 140 C 620 140, 640 230, 680 230"/><path d="M 580 140 C 620 140, 640 260, 680 260"/><path d="M 580 140 C 620 140, 640 290, 680 290"/><path d="M 580 140 C 620 140, 640 320, 680 320"/>
    <!-- From gray neurons to green neurons -->
    <path d="M 580 170 C 620 170, 640 50, 680 50"/><path d="M 580 170 C 620 170, 640 80, 680 80"/><path d="M 580 170 C 620 170, 640 110, 680 110"/><path d="M 580 170 C 620 170, 640 140, 680 140"/>
    <path d="M 580 200 C 620 200, 640 50, 680 50"/><path d="M 580 200 C 620 200, 640 80, 680 80"/><path d="M 580 200 C 620 200, 640 110, 680 110"/><path d="M 580 200 C 620 200, 640 140, 680 140"/>
    <path d="M 580 230 C 620 230, 640 50, 680 50"/><path d="M 580 230 C 620 230, 640 80, 680 80"/><path d="M 580 230 C 620 230, 640 110, 680 110"/><path d="M 580 230 C 620 230, 640 140, 680 140"/>
    <path d="M 580 260 C 620 260, 640 50, 680 50"/><path d="M 580 260 C 620 260, 640 80, 680 80"/><path d="M 580 260 C 620 260, 640 110, 680 110"/><path d="M 580 260 C 620 260, 640 140, 680 140"/>
    <path d="M 580 290 C 620 290, 640 50, 680 50"/><path d="M 580 290 C 620 290, 640 80, 680 80"/><path d="M 580 290 C 620 290, 640 110, 680 110"/><path d="M 580 290 C 620 290, 640 140, 680 140"/>
    <path d="M 580 320 C 620 320, 640 50, 680 50"/><path d="M 580 320 C 620 320, 640 80, 680 80"/><path d="M 580 320 C 620 320, 640 110, 680 110"/><path d="M 580 320 C 620 320, 640 140, 680 140"/>
  </g>
  
  <!-- Curved connections Layer 2 to Layer 3 (disentangled right) - GRAY only -->
  <g stroke="#999" stroke-width="0.5" fill="none">
    <path d="M 700 170 C 740 170, 760 170, 800 170"/><path d="M 700 170 C 740 170, 760 200, 800 200"/><path d="M 700 170 C 740 170, 760 230, 800 230"/><path d="M 700 170 C 740 170, 760 260, 800 260"/><path d="M 700 170 C 740 170, 760 290, 800 290"/><path d="M 700 170 C 740 170, 760 320, 800 320"/>
    <path d="M 700 200 C 740 200, 760 170, 800 170"/><path d="M 700 200 C 740 200, 760 200, 800 200"/><path d="M 700 200 C 740 200, 760 230, 800 230"/><path d="M 700 200 C 740 200, 760 260, 800 260"/><path d="M 700 200 C 740 200, 760 290, 800 290"/><path d="M 700 200 C 740 200, 760 320, 800 320"/>
    <path d="M 700 230 C 740 230, 760 170, 800 170"/><path d="M 700 230 C 740 230, 760 200, 800 200"/><path d="M 700 230 C 740 230, 760 230, 800 230"/><path d="M 700 230 C 740 230, 760 260, 800 260"/><path d="M 700 230 C 740 230, 760 290, 800 290"/><path d="M 700 230 C 740 230, 760 320, 800 320"/>
    <path d="M 700 260 C 740 260, 760 170, 800 170"/><path d="M 700 260 C 740 260, 760 200, 800 200"/><path d="M 700 260 C 740 260, 760 230, 800 230"/><path d="M 700 260 C 740 260, 760 260, 800 260"/><path d="M 700 260 C 740 260, 760 290, 800 290"/><path d="M 700 260 C 740 260, 760 320, 800 320"/>
    <path d="M 700 290 C 740 290, 760 170, 800 170"/><path d="M 700 290 C 740 290, 760 200, 800 200"/><path d="M 700 290 C 740 290, 760 230, 800 230"/><path d="M 700 290 C 740 290, 760 260, 800 260"/><path d="M 700 290 C 740 290, 760 290, 800 290"/><path d="M 700 290 C 740 290, 760 320, 800 320"/>
    <path d="M 700 320 C 740 320, 760 170, 800 170"/><path d="M 700 320 C 740 320, 760 200, 800 200"/><path d="M 700 320 C 740 320, 760 230, 800 230"/><path d="M 700 320 C 740 320, 760 260, 800 260"/><path d="M 700 320 C 740 320, 760 290, 800 290"/><path d="M 700 320 C 740 320, 760 320, 800 320"/>
  </g>
  
  <!-- Curved connections Layer 2 to Layer 3 (disentangled right) - GREEN -->
  <g stroke="#2E8B57" stroke-width="0.5" fill="none">
    <path d="M 700 50 C 740 50, 760 50, 800 50"/><path d="M 700 50 C 740 50, 760 80, 800 80"/><path d="M 700 50 C 740 50, 760 110, 800 110"/><path d="M 700 50 C 740 50, 760 140, 800 140"/><path d="M 700 50 C 740 50, 760 170, 800 170"/><path d="M 700 50 C 740 50, 760 200, 800 200"/><path d="M 700 50 C 740 50, 760 230, 800 230"/><path d="M 700 50 C 740 50, 760 260, 800 260"/><path d="M 700 50 C 740 50, 760 290, 800 290"/><path d="M 700 50 C 740 50, 760 320, 800 320"/>
    <path d="M 700 80 C 740 80, 760 50, 800 50"/><path d="M 700 80 C 740 80, 760 80, 800 80"/><path d="M 700 80 C 740 80, 760 110, 800 110"/><path d="M 700 80 C 740 80, 760 140, 800 140"/><path d="M 700 80 C 740 80, 760 170, 800 170"/><path d="M 700 80 C 740 80, 760 200, 800 200"/><path d="M 700 80 C 740 80, 760 230, 800 230"/><path d="M 700 80 C 740 80, 760 260, 800 260"/><path d="M 700 80 C 740 80, 760 290, 800 290"/><path d="M 700 80 C 740 80, 760 320, 800 320"/>
    <path d="M 700 110 C 740 110, 760 50, 800 50"/><path d="M 700 110 C 740 110, 760 80, 800 80"/><path d="M 700 110 C 740 110, 760 110, 800 110"/><path d="M 700 110 C 740 110, 760 140, 800 140"/><path d="M 700 110 C 740 110, 760 170, 800 170"/><path d="M 700 110 C 740 110, 760 200, 800 200"/><path d="M 700 110 C 740 110, 760 230, 800 230"/><path d="M 700 110 C 740 110, 760 260, 800 260"/><path d="M 700 110 C 740 110, 760 290, 800 290"/><path d="M 700 110 C 740 110, 760 320, 800 320"/>
    <path d="M 700 140 C 740 140, 760 50, 800 50"/><path d="M 700 140 C 740 140, 760 80, 800 80"/><path d="M 700 140 C 740 140, 760 110, 800 110"/><path d="M 700 140 C 740 140, 760 140, 800 140"/><path d="M 700 140 C 740 140, 760 170, 800 170"/><path d="M 700 140 C 740 140, 760 200, 800 200"/><path d="M 700 140 C 740 140, 760 230, 800 230"/><path d="M 700 140 C 740 140, 760 260, 800 260"/><path d="M 700 140 C 740 140, 760 290, 800 290"/><path d="M 700 140 C 740 140, 760 320, 800 320"/>
    <path d="M 700 170 C 740 170, 760 50, 800 50"/><path d="M 700 170 C 740 170, 760 80, 800 80"/><path d="M 700 170 C 740 170, 760 110, 800 110"/><path d="M 700 170 C 740 170, 760 140, 800 140"/>
    <path d="M 700 200 C 740 200, 760 50, 800 50"/><path d="M 700 200 C 740 200, 760 80, 800 80"/><path d="M 700 200 C 740 200, 760 110, 800 110"/><path d="M 700 200 C 740 200, 760 140, 800 140"/>
    <path d="M 700 230 C 740 230, 760 50, 800 50"/><path d="M 700 230 C 740 230, 760 80, 800 80"/><path d="M 700 230 C 740 230, 760 110, 800 110"/><path d="M 700 230 C 740 230, 760 140, 800 140"/>
    <path d="M 700 260 C 740 260, 760 50, 800 50"/><path d="M 700 260 C 740 260, 760 80, 800 80"/><path d="M 700 260 C 740 260, 760 110, 800 110"/><path d="M 700 260 C 740 260, 760 140, 800 140"/>
    <path d="M 700 290 C 740 290, 760 50, 800 50"/><path d="M 700 290 C 740 290, 760 80, 800 80"/><path d="M 700 290 C 740 290, 760 110, 800 110"/><path d="M 700 290 C 740 290, 760 140, 800 140"/>
    <path d="M 700 320 C 740 320, 760 50, 800 50"/><path d="M 700 320 C 740 320, 760 80, 800 80"/><path d="M 700 320 C 740 320, 760 110, 800 110"/><path d="M 700 320 C 740 320, 760 140, 800 140"/>
  </g>
  
  <!-- Curved connections Layer 3 to Layer 4 (disentangled right) - GRAY only -->
  <g stroke="#999" stroke-width="0.5" fill="none">
    <path d="M 820 170 C 860 170, 880 170, 920 170"/><path d="M 820 170 C 860 170, 880 200, 920 200"/><path d="M 820 170 C 860 170, 880 230, 920 230"/><path d="M 820 170 C 860 170, 880 260, 920 260"/><path d="M 820 170 C 860 170, 880 290, 920 290"/><path d="M 820 170 C 860 170, 880 320, 920 320"/>
    <path d="M 820 200 C 860 200, 880 170, 920 170"/><path d="M 820 200 C 860 200, 880 200, 920 200"/><path d="M 820 200 C 860 200, 880 230, 920 230"/><path d="M 820 200 C 860 200, 880 260, 920 260"/><path d="M 820 200 C 860 200, 880 290, 920 290"/><path d="M 820 200 C 860 200, 880 320, 920 320"/>
    <path d="M 820 230 C 860 230, 880 170, 920 170"/><path d="M 820 230 C 860 230, 880 200, 920 200"/><path d="M 820 230 C 860 230, 880 230, 920 230"/><path d="M 820 230 C 860 230, 880 260, 920 260"/><path d="M 820 230 C 860 230, 880 290, 920 290"/><path d="M 820 230 C 860 230, 880 320, 920 320"/>
    <path d="M 820 260 C 860 260, 880 170, 920 170"/><path d="M 820 260 C 860 260, 880 200, 920 200"/><path d="M 820 260 C 860 260, 880 230, 920 230"/><path d="M 820 260 C 860 260, 880 260, 920 260"/><path d="M 820 260 C 860 260, 880 290, 920 290"/><path d="M 820 260 C 860 260, 880 320, 920 320"/>
    <path d="M 820 290 C 860 290, 880 170, 920 170"/><path d="M 820 290 C 860 290, 880 200, 920 200"/><path d="M 820 290 C 860 290, 880 230, 920 230"/><path d="M 820 290 C 860 290, 880 260, 920 260"/><path d="M 820 290 C 860 290, 880 290, 920 290"/><path d="M 820 290 C 860 290, 880 320, 920 320"/>
    <path d="M 820 320 C 860 320, 880 170, 920 170"/><path d="M 820 320 C 860 320, 880 200, 920 200"/><path d="M 820 320 C 860 320, 880 230, 920 230"/><path d="M 820 320 C 860 320, 880 260, 920 260"/><path d="M 820 320 C 860 320, 880 290, 920 290"/><path d="M 820 320 C 860 320, 880 320, 920 320"/>
  </g>
  
  <!-- Curved connections Layer 3 to Layer 4 (disentangled right) - GREEN -->
  <g stroke="#2E8B57" stroke-width="0.5" fill="none">
    <path d="M 820 50 C 860 50, 880 50, 920 50"/><path d="M 820 50 C 860 50, 880 80, 920 80"/><path d="M 820 50 C 860 50, 880 110, 920 110"/><path d="M 820 50 C 860 50, 880 140, 920 140"/><path d="M 820 50 C 860 50, 880 170, 920 170"/><path d="M 820 50 C 860 50, 880 200, 920 200"/><path d="M 820 50 C 860 50, 880 230, 920 230"/><path d="M 820 50 C 860 50, 880 260, 920 260"/><path d="M 820 50 C 860 50, 880 290, 920 290"/><path d="M 820 50 C 860 50, 880 320, 920 320"/>
    <path d="M 820 80 C 860 80, 880 50, 920 50"/><path d="M 820 80 C 860 80, 880 80, 920 80"/><path d="M 820 80 C 860 80, 880 110, 920 110"/><path d="M 820 80 C 860 80, 880 140, 920 140"/><path d="M 820 80 C 860 80, 880 170, 920 170"/><path d="M 820 80 C 860 80, 880 200, 920 200"/><path d="M 820 80 C 860 80, 880 230, 920 230"/><path d="M 820 80 C 860 80, 880 260, 920 260"/><path d="M 820 80 C 860 80, 880 290, 920 290"/><path d="M 820 80 C 860 80, 880 320, 920 320"/>
    <path d="M 820 110 C 860 110, 880 50, 920 50"/><path d="M 820 110 C 860 110, 880 80, 920 80"/><path d="M 820 110 C 860 110, 880 110, 920 110"/><path d="M 820 110 C 860 110, 880 140, 920 140"/><path d="M 820 110 C 860 110, 880 170, 920 170"/><path d="M 820 110 C 860 110, 880 200, 920 200"/><path d="M 820 110 C 860 110, 880 230, 920 230"/><path d="M 820 110 C 860 110, 880 260, 920 260"/><path d="M 820 110 C 860 110, 880 290, 920 290"/><path d="M 820 110 C 860 110, 880 320, 920 320"/>
    <path d="M 820 140 C 860 140, 880 50, 920 50"/><path d="M 820 140 C 860 140, 880 80, 920 80"/><path d="M 820 140 C 860 140, 880 110, 920 110"/><path d="M 820 140 C 860 140, 880 140, 920 140"/><path d="M 820 140 C 860 140, 880 170, 920 170"/><path d="M 820 140 C 860 140, 880 200, 920 200"/><path d="M 820 140 C 860 140, 880 230, 920 230"/><path d="M 820 140 C 860 140, 880 260, 920 260"/><path d="M 820 140 C 860 140, 880 290, 920 290"/><path d="M 820 140 C 860 140, 880 320, 920 320"/>
    <path d="M 820 170 C 860 170, 880 50, 920 50"/><path d="M 820 170 C 860 170, 880 80, 920 80"/><path d="M 820 170 C 860 170, 880 110, 920 110"/><path d="M 820 170 C 860 170, 880 140, 920 140"/>
    <path d="M 820 200 C 860 200, 880 50, 920 50"/><path d="M 820 200 C 860 200, 880 80, 920 80"/><path d="M 820 200 C 860 200, 880 110, 920 110"/><path d="M 820 200 C 860 200, 880 140, 920 140"/>
    <path d="M 820 230 C 860 230, 880 50, 920 50"/><path d="M 820 230 C 860 230, 880 80, 920 80"/><path d="M 820 230 C 860 230, 880 110, 920 110"/><path d="M 820 230 C 860 230, 880 140, 920 140"/>
    <path d="M 820 260 C 860 260, 880 50, 920 50"/><path d="M 820 260 C 860 260, 880 80, 920 80"/><path d="M 820 260 C 860 260, 880 110, 920 110"/><path d="M 820 260 C 860 260, 880 140, 920 140"/>
    <path d="M 820 290 C 860 290, 880 50, 920 50"/><path d="M 820 290 C 860 290, 880 80, 920 80"/><path d="M 820 290 C 860 290, 880 110, 920 110"/><path d="M 820 290 C 860 290, 880 140, 920 140"/>
    <path d="M 820 320 C 860 320, 880 50, 920 50"/><path d="M 820 320 C 860 320, 880 80, 920 80"/><path d="M 820 320 C 860 320, 880 110, 920 110"/><path d="M 820 320 C 860 320, 880 140, 920 140"/>
  </g>
  
  <!-- Neurons Layer 1 (disentangled right) - GREEN (top 4) -->
  <circle cx="570" cy="50" r="10" fill="#2E8B57"/>
  <circle cx="570" cy="80" r="10" fill="#2E8B57"/>
  <circle cx="570" cy="110" r="10" fill="#2E8B57"/>
  <circle cx="570" cy="140" r="10" fill="#2E8B57"/>
  <!-- Neurons Layer 1 (disentangled right) - GRAY (bottom 6) -->
  <circle cx="570" cy="170" r="10" fill="#444"/>
  <circle cx="570" cy="200" r="10" fill="#444"/>
  <circle cx="570" cy="230" r="10" fill="#444"/>
  <circle cx="570" cy="260" r="10" fill="#444"/>
  <circle cx="570" cy="290" r="10" fill="#444"/>
  <circle cx="570" cy="320" r="10" fill="#444"/>
  
  <!-- Neurons Layer 2 (disentangled right) - GREEN -->
  <circle cx="690" cy="50" r="10" fill="#2E8B57"/>
  <circle cx="690" cy="80" r="10" fill="#2E8B57"/>
  <circle cx="690" cy="110" r="10" fill="#2E8B57"/>
  <circle cx="690" cy="140" r="10" fill="#2E8B57"/>
  <!-- Neurons Layer 2 (disentangled right) - GRAY -->
  <circle cx="690" cy="170" r="10" fill="#444"/>
  <circle cx="690" cy="200" r="10" fill="#444"/>
  <circle cx="690" cy="230" r="10" fill="#444"/>
  <circle cx="690" cy="260" r="10" fill="#444"/>
  <circle cx="690" cy="290" r="10" fill="#444"/>
  <circle cx="690" cy="320" r="10" fill="#444"/>
  
  <!-- Neurons Layer 3 (disentangled right) - GREEN -->
  <circle cx="810" cy="50" r="10" fill="#2E8B57"/>
  <circle cx="810" cy="80" r="10" fill="#2E8B57"/>
  <circle cx="810" cy="110" r="10" fill="#2E8B57"/>
  <circle cx="810" cy="140" r="10" fill="#2E8B57"/>
  <!-- Neurons Layer 3 (disentangled right) - GRAY -->
  <circle cx="810" cy="170" r="10" fill="#444"/>
  <circle cx="810" cy="200" r="10" fill="#444"/>
  <circle cx="810" cy="230" r="10" fill="#444"/>
  <circle cx="810" cy="260" r="10" fill="#444"/>
  <circle cx="810" cy="290" r="10" fill="#444"/>
  <circle cx="810" cy="320" r="10" fill="#444"/>
  
  <!-- Neurons Layer 4 (disentangled right) - GREEN -->
  <circle cx="930" cy="50" r="10" fill="#2E8B57"/>
  <circle cx="930" cy="80" r="10" fill="#2E8B57"/>
  <circle cx="930" cy="110" r="10" fill="#2E8B57"/>
  <circle cx="930" cy="140" r="10" fill="#2E8B57"/>
  <!-- Neurons Layer 4 (disentangled right) - GRAY -->
  <circle cx="930" cy="170" r="10" fill="#444"/>
  <circle cx="930" cy="200" r="10" fill="#444"/>
  <circle cx="930" cy="230" r="10" fill="#444"/>
  <circle cx="930" cy="260" r="10" fill="#444"/>
  <circle cx="930" cy="290" r="10" fill="#444"/>
  <circle cx="930" cy="320" r="10" fill="#444"/>
  
  <!-- Orange dashed arrow (right) -->
  <line x1="750" y1="350" x2="750" y2="390" stroke="#E8890C" stroke-width="2" stroke-dasharray="6,4" marker-end="url(#arrowhead)"/>
  
  <!-- Observed model right: 5 neurons per layer, y: 420, 450, 480, 510, 540 -> too tall -->
  <!-- Let's use y: 420, 450, 480, 510, 540 but viewBox height 570 -->
  
  <!-- Curved connections Layer 1 to Layer 2 (observed right) - 5 neurons -->
  <g stroke="#999" stroke-width="0.5" fill="none">
    <path d="M 580 420 C 620 420, 640 420, 680 420"/><path d="M 580 420 C 620 420, 640 450, 680 450"/><path d="M 580 420 C 620 420, 640 480, 680 480"/><path d="M 580 420 C 620 420, 640 510, 680 510"/><path d="M 580 420 C 620 420, 640 540, 680 540"/>
    <path d="M 580 450 C 620 450, 640 420, 680 420"/><path d="M 580 450 C 620 450, 640 450, 680 450"/><path d="M 580 450 C 620 450, 640 480, 680 480"/><path d="M 580 450 C 620 450, 640 510, 680 510"/><path d="M 580 450 C 620 450, 640 540, 680 540"/>
    <path d="M 580 480 C 620 480, 640 420, 680 420"/><path d="M 580 480 C 620 480, 640 450, 680 450"/><path d="M 580 480 C 620 480, 640 480, 680 480"/><path d="M 580 480 C 620 480, 640 510, 680 510"/><path d="M 580 480 C 620 480, 640 540, 680 540"/>
    <path d="M 580 510 C 620 510, 640 420, 680 420"/><path d="M 580 510 C 620 510, 640 450, 680 450"/><path d="M 580 510 C 620 510, 640 480, 680 480"/><path d="M 580 510 C 620 510, 640 510, 680 510"/><path d="M 580 510 C 620 510, 640 540, 680 540"/>
    <path d="M 580 540 C 620 540, 640 420, 680 420"/><path d="M 580 540 C 620 540, 640 450, 680 450"/><path d="M 580 540 C 620 540, 640 480, 680 480"/><path d="M 580 540 C 620 540, 640 510, 680 510"/><path d="M 580 540 C 620 540, 640 540, 680 540"/>
  </g>
  
  <!-- Curved connections Layer 2 to Layer 3 (observed right) -->
  <g stroke="#999" stroke-width="0.5" fill="none">
    <path d="M 700 420 C 740 420, 760 420, 800 420"/><path d="M 700 420 C 740 420, 760 450, 800 450"/><path d="M 700 420 C 740 420, 760 480, 800 480"/><path d="M 700 420 C 740 420, 760 510, 800 510"/><path d="M 700 420 C 740 420, 760 540, 800 540"/>
    <path d="M 700 450 C 740 450, 760 420, 800 420"/><path d="M 700 450 C 740 450, 760 450, 800 450"/><path d="M 700 450 C 740 450, 760 480, 800 480"/><path d="M 700 450 C 740 450, 760 510, 800 510"/><path d="M 700 450 C 740 450, 760 540, 800 540"/>
    <path d="M 700 480 C 740 480, 760 420, 800 420"/><path d="M 700 480 C 740 480, 760 450, 800 450"/><path d="M 700 480 C 740 480, 760 480, 800 480"/><path d="M 700 480 C 740 480, 760 510, 800 510"/><path d="M 700 480 C 740 480, 760 540, 800 540"/>
    <path d="M 700 510 C 740 510, 760 420, 800 420"/><path d="M 700 510 C 740 510, 760 450, 800 450"/><path d="M 700 510 C 740 510, 760 480, 800 480"/><path d="M 700 510 C 740 510, 760 510, 800 510"/><path d="M 700 510 C 740 510, 760 540, 800 540"/>
    <path d="M 700 540 C 740 540, 760 420, 800 420"/><path d="M 700 540 C 740 540, 760 450, 800 450"/><path d="M 700 540 C 740 540, 760 480, 800 480"/><path d="M 700 540 C 740 540, 760 510, 800 510"/><path d="M 700 540 C 740 540, 760 540, 800 540"/>
  </g>
  
  <!-- Curved connections Layer 3 to Layer 4 (observed right) -->
  <g stroke="#999" stroke-width="0.5" fill="none">
    <path d="M 820 420 C 860 420, 880 420, 920 420"/><path d="M 820 420 C 860 420, 880 450, 920 450"/><path d="M 820 420 C 860 420, 880 480, 920 480"/><path d="M 820 420 C 860 420, 880 510, 920 510"/><path d="M 820 420 C 860 420, 880 540, 920 540"/>
    <path d="M 820 450 C 860 450, 880 420, 920 420"/><path d="M 820 450 C 860 450, 880 450, 920 450"/><path d="M 820 450 C 860 450, 880 480, 920 480"/><path d="M 820 450 C 860 450, 880 510, 920 510"/><path d="M 820 450 C 860 450, 880 540, 920 540"/>
    <path d="M 820 480 C 860 480, 880 420, 920 420"/><path d="M 820 480 C 860 480, 880 450, 920 450"/><path d="M 820 480 C 860 480, 880 480, 920 480"/><path d="M 820 480 C 860 480, 880 510, 920 510"/><path d="M 820 480 C 860 480, 880 540, 920 540"/>
    <path d="M 820 510 C 860 510, 880 420, 920 420"/><path d="M 820 510 C 860 510, 880 450, 920 450"/><path d="M 820 510 C 860 510, 880 480, 920 480"/><path d="M 820 510 C 860 510, 880 510, 920 510"/><path d="M 820 510 C 860 510, 880 540, 920 540"/>
    <path d="M 820 540 C 860 540, 880 420, 920 420"/><path d="M 820 540 C 860 540, 880 450, 920 450"/><path d="M 820 540 C 860 540, 880 480, 920 480"/><path d="M 820 540 C 860 540, 880 510, 920 510"/><path d="M 820 540 C 860 540, 880 540, 920 540"/>
  </g>
  
  <!-- Neurons Layer 1 (observed right) -->
  <circle cx="570" cy="420" r="10" fill="#444"/>
  <circle cx="570" cy="450" r="10" fill="#444"/>
  <circle cx="570" cy="480" r="10" fill="#444"/>
  <circle cx="570" cy="510" r="10" fill="#444"/>
  <circle cx="570" cy="540" r="10" fill="#444"/>
  
  <!-- Neurons Layer 2 (observed right) -->
  <circle cx="690" cy="420" r="10" fill="#444"/>
  <circle cx="690" cy="450" r="10" fill="#444"/>
  <circle cx="690" cy="480" r="10" fill="#444"/>
  <circle cx="690" cy="510" r="10" fill="#444"/>
  <circle cx="690" cy="540" r="10" fill="#444"/>
  
  <!-- Neurons Layer 3 (observed right) -->
  <circle cx="810" cy="420" r="10" fill="#444"/>
  <circle cx="810" cy="450" r="10" fill="#444"/>
  <circle cx="810" cy="480" r="10" fill="#444"/>
  <circle cx="810" cy="510" r="10" fill="#444"/>
  <circle cx="810" cy="540" r="10" fill="#444"/>
  
  <!-- Neurons Layer 4 (observed right) -->
  <circle cx="930" cy="420" r="10" fill="#444"/>
  <circle cx="930" cy="450" r="10" fill="#444"/>
  <circle cx="930" cy="480" r="10" fill="#444"/>
  <circle cx="930" cy="510" r="10" fill="#444"/>
  <circle cx="930" cy="540" r="10" fill="#444"/>
  
  <!-- OBSERVED MODEL label (right) -->
  <text x="550" y="580" class="label">OBSERVED MODEL</text>
</svg>

